<svg version="1.2" baseProfile="tiny-ps" xmlns="http://www.w3.org/2000/svg" viewBox="0 0 366 433" width="366" height="433">
	<title>custom-10-svg</title>
	<style>
		tspan { white-space:pre }
		.s0 { opacity: .7;fill: #69a1ac } 
		.s1 { opacity: .7;fill: #89c5cc } 
		.s2 { fill: #f2f2f2 } 
		.s3 { fill: #cfaf92 } 
		.s4 { fill: #663259 } 
		.s5 { fill: #ffa800 } 
		.s6 { fill: #1f28cf } 
		.s7 { fill: #2b44ff } 
		.s8 { fill: #e4e4e4 } 
		.s9 { fill: #f8374b } 
		.s10 { fill: #dde3e9 } 
		.s11 { fill: #f64e60 } 
		.s12 { opacity: .1;fill: #000000 } 
		.s13 { opacity: .2;fill: #ffffff } 
	</style>
	<g id="Layer" style="opacity: .1">
		<path id="Layer" fill-rule="evenodd" class="s0" d="m357.15 252.29c-7.4 21.75-26.8 54.82-54.36 48.55c6.37-10.83 13.26-22.3 19.43-32.81c1.35-2.27 2.8-5.02 4.11-7.6c1.04-2.04 5.95-12.76 0.61-7.43c-2.84 2.83-4.94 10.09-7.04 13.9c-1.33 2.42-3.24 6.08-4.14 7.62c-16.44 29.83-41.7 52.98-46.87 88.13c-1.34 9.11-0.35 16.95 0.76 25.92c0.17 1.41 1.7 5.76-1.56 5.16c-2.92-0.53-3.3-8.14-3.61-10.26c-2.46-16.69 1.89-34.52 8.53-49.78c4.61-10.59 11.13-19.68 18.36-28.55c3.69-4.52 4.68-4.1 2.83-9.49c-1.52-4.43-2.14-10.81-1.04-15.35c1.73-7.12 8.4-12.78 11.62-19.44c3.34-6.93 5.79-14.22 6.95-21.83c1.45-9.51 1.16-19.01 2.1-28.54c1.29-13.11 16.23-20.16 28.32-19.53c28.39 1.53 21.1 43.42 15.01 61.33z" />
		<path id="Layer" fill-rule="evenodd" class="s1" d="m180.18 157.69c20.2 1.6 33.17 14.91 39.21 33.52c3.25 10.03 3.63 20.34 5.43 30.64c2.72 15.51 8.57 27.26 20.01 38.31c3.54 3.42 6.15 6.94 8.01 10.69c3.68 3.75 6.89 8 9.25 13.19c3.01 6.63 3.86 14.59 0.39 21.2c-0.93 1.78-3.26 5.34-5.68 6.97c9.04 19.23 14.02 40.29 13.46 61.32c-0.34 12.7-0.96 25.4-1.68 38.08c-0.19 3.4-1.31 9.03-2.97 3.32c-1.53-5.22 0.39-13.42 0.56-18.88c0.86-26.58 1.6-50.75-9.36-75.58c-1.15-2.6-2.37-5.19-3.64-7.75c-0.07-0.04-0.14-0.1-0.21-0.15c-0.05 0.04-0.09 0.08-0.14 0.11c-0.08-0.14-0.19-0.32-0.32-0.51c-0.36-0.38-0.68-0.85-0.98-1.38c-0.97-1.34-2.07-2.93-2.08-3.79c0-0.01 0-0.02 0-0.02c-6.78-11.06-14.56-21.51-22.5-31.75c0.06 0.07-8.61-11.71-7.27-5.19c0.65 3.14 7.02 9.12 9.6 12.45c5.7 7.4 12.39 16.78 17.95 25.85c0.75 0.43 1.81 2.54 2.57 4.11c0.42 0.8 0.82 1.6 1.2 2.3c-19.7 6.5-35.03-6.59-45.47-21.82c-0.01-0.02-0.02-0.04-0.04-0.05c-3.18-4.21-6.44-8.38-10.51-11.71c-6.79-5.55-14.06-6.53-22.07-9.26c-21.83-7.45-31.11-35.69-34.06-56.65c-3.33-23.65 12.94-59.9 41.35-57.57z" />
		<path id="Layer" fill-rule="evenodd" class="s1" d="m220.08 91.48c20.73 21.54 30.75 51.42 38.68 79.51c8.86 31.37 14.71 63.23 14.93 95.85c0.15 21.43 0.73 43-0.52 64.4c-0.44 7.6-1.2 15.22-2.41 22.74c-0.1 0.62-2.8 17.41-5.38 13.5c-1.47-2.23 2.77-17.42 3.09-19.95c1.8-14.25 2.22-28.61 2.13-42.97c-0.14-23.64 0.55-47.16-1.85-70.71c-0.36-3.52-0.64-7.21-1.48-10.65c-0.89-3.66 0.24-2.06-2.65-3.51c-2.81-1.41-6.29-1.21-9.2-2.97c-11.57-7-17.49-25-22.1-36.8c-5.27-13.5-8.47-27.9-11.03-42.1c-1.88-10.44-3.22-20.81-3.98-31.39c-0.24-3.33-0.25-6.82-0.91-10.09c-0.18-0.88-1.06-2.45-1.03-3.23c0.07-1.66 1.07-2.63 1.15-4.02c0.87 0.78 1.72 1.58 2.55 2.39z" />
		<path id="Layer" fill-rule="evenodd" class="s1" d="m333.14 378.5c0 35.63-28.93 64.51-64.62 64.51c-35.69 0-64.62-28.88-64.62-64.51" />
		<path id="Layer" fill-rule="evenodd" class="s0" d="m262.81 373.41c-1.92-16.33-9.16-42.03-27.74-46.1c-1.72-0.38-7.71 0.25-12.74 0.8c-1.94 0.6-3.48 1.4-3.9 2.4c-1.38 3.3 7.94-0.88 8.86-1.07c5.42-1.17 8.98-0.04 8.4 6.25c-0.42 4.55-4.03 7.37-7.3 10.13c-2.09 1.76-4.34 3.33-6.41 5.11c-8.87 7.66-10.29 17.44-10.59 28.67c-0.23 8.45-0.79 22.9-12.5 22.77c-9.36-0.11-14.98-11.07-17.55-18.75c-3.84-11.48-4.89-25.67 1.33-36.48c7.71-13.4 25.57-26.28 41.57-25.11c1.73 0.11 3.37 0.61 4.83 1.42c3.09-0.18 5.64-0.16 6.33-0.07c18.78 2.63 27.35 26.38 30.09 42.55c0.72 4.23 1.03 8.5 1.27 12.78h-3.41c-0.15-1.77-0.31-3.54-0.52-5.3z" />
	</g>
	<g id="Layer" style="opacity: 0">
		<path id="Layer" fill-rule="evenodd" class="s2" d="m54.57 150.5c3.86-1.91 9 0.3 6.86 5.36c-2.3 5.41-10.8 5.48-15.6 5.37c0.48-0.03 2.03-4.98 2.56-5.73c1.56-2.21 3.81-3.81 6.19-4.99zm3.72 24.46c2.26 1.72 2.37 4.77 0.52 6.83c-2.2 2.45-6.21 2.36-9.2 2.12c-1.35-0.11-8.59-0.69-6.87-1.87c-0.13 0.05-0.41 0.17-0.7 0.34c-0.16 0.58-0.32 1.16-0.5 1.73c0.04 0.03 0.08 0.05 0.12 0.08c-0.05-0.02-0.08-0.04-0.13-0.07c-1.74 5.74-4.21 11.2-7.46 16.31c1.21-0.48 2.47-0.84 3.74-1c3.77-0.48 11.71 2.45 7.49 7.47c-4.05 4.81-10.35-0.35-14.94-1.06c-4.45 6.21-9.37 12.16-14.51 17.91c0.31 0.1 0.59 0.3 0.75 0.62c2.06-1.05 4.22-2.54 6.13-2.95c2.76-0.58 8.41-0.94 10.5 1.53c2.56 3.03-0.18 5.49-3.21 6.07c-4.39 0.84-10.14-1.3-14.37-2.75c-0.48 0.09-1.01-0.06-1.33-0.44c-0.09-0.03-0.19-0.06-0.28-0.09c-5.21 5.72-10.63 11.25-16 16.67c0.06 0 0.11-0.01 0.17-0.01c1.4-0.92 2.91-1.67 4.54-2.07c3.77-0.92 8.21-0.92 11.28 1.8c3.05 2.71 4.13 7.46 0.98 10.51c-6.32 6.1-15.63-7.81-18.81-8.39c-5.47 5.44-11.25 10.53-17.12 15.51c0.67-0.2 1.35-0.35 2.06-0.42c5.76-0.55 19.27 6.5 12.2 13.43c-6.16 6.04-13.28-5.59-18.25-9.65c-5.53 4.64-11.1 9.25-16.5 14.05c2.95-0.78 5.8-0.9 8.96 0.06c3.27 0.99 8.55 3.45 6.48 7.86c-2.1 4.48-8.44 2.44-11.74 1.02c-1.8-0.78-5.41-3.4-8.58-4.5c-8.63 8.13-16.1 17.09-21.76 27.64c-3.53 6.59-6.21 13.63-8.1 20.86c-1.2 4.62-3.58 12.37-3.1 18.38c-2.26-12.03 1.83-26.48 6.24-37.23c4.06-9.89 10.12-18.56 17.23-26.38c-1.78-5.36-16.8-13.08-7.82-18.06c4.77-2.63 9.65 1.73 10.69 6.36c0.72 3.18-0.37 7.17-1.53 10.25c2.24-2.38 4.56-4.69 6.95-6.91c3.31-3.08 6.7-6.07 10.12-9.02c-5.64-5.29-10.97-20.41-3.41-22.88c11.16-3.64 5.79 16.98 5.01 20.85c-0.22 0.01-0.39-0.05-0.52-0.2c0.06 0.35 0.14 0.73 0.22 1.11c6.55-5.62 13.2-11.13 19.62-16.89c-0.58-0.43-1.5-2.06-2.22-2.93c-1.63-1.96-3.19-4.01-4.34-6.3c-1.8-3.62-3.54-9.4 1.24-11.53c5.2-2.32 7.67 4.21 7.71 8.11c0.02 2.7-0.71 5.26-1.09 7.9c-0.12 0.82 0.34 4.54-0.78 2.94c0.05 0.59 0.06 1.02 0.03 1.32c1.15-1.04 2.3-2.09 3.44-3.15c-0.05-0.13-0.09-0.28-0.1-0.45c-0.06-1.16 1.11-1.61 1.93-1.27c1.5-1.42 2.99-2.87 4.45-4.34c3.09-3.12 6.23-6.32 9.35-9.59c-0.68-0.58-0.41-1.38-1.04-2c-0.63-0.61-1.88-0.95-2.62-1.52c-1.87-1.44-3.42-3.53-4.54-5.59c-1.85-3.4-4.24-10.54 1.16-12.17c5.57-1.67 8.4 5.2 8.75 9.5c0.07 0.83-0.56 8.33-1.03 11.06c5.77-6.08 11.44-12.4 16.58-18.82c-1.56-0.01-5.98-3.2-6.87-4.07c-2.18-2.12-5.64-6.81-1.82-9.29c3.4-2.2 7.59 0.99 9.04 4.09c0.24 0.51 1.08 5.26 1.15 7.39c2.13-2.72 4.16-5.46 6.05-8.21c1.26-1.83 2.44-3.7 3.54-5.62c-0.27-0.15-0.51-0.41-0.75-0.74c-5.67-0.96-12.89-9.79-6.24-12.86c3.17-1.46 6.61 1.55 8.16 4.02c0.32 0.51 0.83 3.04 1.25 5.05c3.17-6.34 5.59-13.06 7.43-19.95c-0.49-0.12-0.91-0.5-0.97-1.15c-2.75-1.57-4.93-2.87-6.85-5.88c-1.19-1.87-3.34-6.14 0.16-7.18c4.56-1.35 7.43 5.61 7.8 9.03c0.04 0.4 0.04 1.56 0.03 2.62c0.16-0.02 0.32-0.02 0.48 0.01c1.05-4.26 1.88-8.58 2.55-12.91c-2.49-0.8-2.92-13.86-1.26-15.72c3.71-4.16 6.32 1.85 6.12 5.03c-0.23 3.75-1.94 7.16-3.96 10.18c-0.22 0.32-0.15 0.3-0.21-0.14c-0.03 0.22-0.11 0.38-0.21 0.5c0.1 1.97 0.31 3.99 0.21 5.74c-0.28 5-0.86 10.03-1.71 14.96c-0.21 1.2-0.44 2.39-0.71 3.57c2-1.7 4.7-3.22 5.76-3.69c2.74-1.23 6.96-2.55 9.69-0.47zm-136.83 178.19c-0.59-1.32-0.9-2.91-1.03-4.66c0.25 1.6 0.59 3.16 1.03 4.66z" />
		<path id="Layer" fill-rule="evenodd" class="s2" d="m-19.52 91.85c2.34-7.8 7.84-13.91 13.55-19.5c11.11-10.89 17.09-17.62 21.05-33.55c2.33-9.37 4.7-19.3 12.09-26.09c5.38-4.95 14.64-9.11 21.83-5.56c11.07 6.6 14.04 20.13 12.92 32.25c-1.38 15.02-8.41 24.28-21.91 29.81c-7.61 3.12-12.66 7.23-16.79 14.39c-3.3 5.73-5.23 12.9-9.38 18.09c-6.21 7.76-13.97 11.22-23.54 9.92c8.97-16.47 19.44-33.09 32.08-46.96c1.18-1.39 8.16-6.73 6.75-9.11c-1.55-2.62-8.71 7.21-8.66 7.15c-3.67 4.21-7.07 8.68-10.41 13.19c0.01 0 0.02 0.01 0.03 0.01c-3.44 4.63-6.84 9.33-10.19 14.09c-1.35 2.01-2.67 4.05-3.93 6.14c-1.85 3.07-4.78 11.77-7.81 13.66c-0.65 0.4-1.25 0.63-1.81 0.72c-2.06 3.37-4.07 6.77-5.98 10.22c-4.99 8.99-9.27 18.48-11.23 28.62c-0.57 2.96-0.17 14.04-2.19 16.18c-3.7 3.91-2.62-3.62-2.4-5.89c1.84-18.82 8.61-34.86 18.44-50.68c-3.02-3.94-3.45-13.96-2.51-17.12z" />
		<path id="Layer" fill-rule="evenodd" class="s2" d="m97.21 117.68c-7.48 2.81-11.41-1.23-18.22-3.21c-2.58-0.75-5.25-1.02-7.91-0.57c-3.86 0.65-7.71 2.9-11.66 3.81c-4.57 1.06-8.92-0.89-10.73-5.1c6.51-4.12 13.65-6.81 21.25-8.14c4.06-0.71 8.19-1.1 12.31-1.14c1-0.01 6.64 0.78 6.57-0.73c-0.07-1.55-3.49-0.82-4.53-0.83c-8.15-0.07-16.35 0.96-24.11 3.57c-7.49 2.52-13.72 7.04-20.51 10.85c-3.18 1.79-17.47 12.17-18.74 10.65c-1.29-1.53 13.26-10.27 14.44-11c9.8-6.07 20.61-12.34 31.74-15.78c6.76-2.09 14.05-3.81 21.15-4.19c5.74-0.31 15.12 0.47 19.02 5.06c5.61 6.6-4.21 14.53-10.07 16.74z" />
		<path id="Layer" fill-rule="evenodd" class="s2" d="m102.87 57.49h-1.85c0.13-2.34 0.3-4.68 0.69-6.99c1.48-8.67 6.13-21.41 16.3-22.81c0.38-0.05 1.76-0.06 3.43 0.04c0.79-0.44 1.68-0.7 2.62-0.76c8.67-0.63 18.34 6.27 22.53 13.46c3.37 5.79 2.8 13.4 0.72 19.56c-1.39 4.12-4.44 10-9.51 10.05c-6.35 0.07-6.65-7.68-6.78-12.21c-0.16-6.02-0.93-11.27-5.74-15.37c-1.12-0.96-2.34-1.8-3.47-2.74c-1.77-1.48-3.73-2.99-3.96-5.43c-0.31-3.37 1.61-3.97 4.55-3.35c0.5 0.11 5.55 2.34 4.8 0.58c-0.23-0.54-1.06-0.97-2.11-1.29c-2.72-0.29-5.97-0.63-6.9-0.43c-10.07 2.18-13.99 15.96-15.03 24.71c-0.12 0.99-0.21 1.99-0.29 2.98v0z" />
	</g>
	<path id="Layer" fill-rule="evenodd" class="s3" d="m82.26 149.49c-4.61-5.41-7.73-12.04-7.2-19.47c1.5-21.4 31.29-16.69 37.09-5.89c5.79 10.8 5.11 38.2-2.38 40.13c-2.99 0.77-9.35-1.12-15.82-5.02l4.06 28.76h-24l8.26-38.51z" />
	<path id="Layer" fill-rule="evenodd" class="s4" d="m121.4 115.55c-0.63 0.95-1.41 1.81-2.31 2.52c0.59 0.38 1.28 0.77 1.66 1.38c0.37 0.58 0.47 1.27 0.41 1.95c-0.08 0.83-0.38 1.75-0.73 2.5c-0.34 0.73-0.83 1.37-1.41 1.92c0.57 0.16 1.03 0.53 1.31 1.04c0.15 0.27 0.21 0.55 0.27 0.85c0.08 0.35 0.22 0.69 0.3 1.05c0.12 0.61 0.05 1.23-0.23 1.79c-0.28 0.55-1.2 1.42-2.03 1.76c-0.83 0.34-3.38 0.1-3.72-0.28c-0.77-0.86-1.04-2.21-1.48-3.26c-0.59-1.42-1.31-2.64-2.2-3.91c-0.89-1.28-1.99-2.45-3.31-3.29c-0.27-0.17-0.72-0.64-1.03-0.46c-0.2 0.12-0.33 0.46-0.46 0.65c-0.17 0.23-0.37 0.44-0.57 0.64c-0.94 0.89-2.12 1.41-3.33 1.83c-1.22 0.42-2.49 0.78-3.6 1.46c-1.02 0.62-1.68 1.6-2.09 2.7c-0.42 1.1-0.62 2.27-0.94 3.4c-0.41 1.47-1 2.9-1.73 4.24c-0.33 0.62-0.72 1.22-1.26 1.68c-0.31 0.26-1.01 0.8-1.44 0.49c-0.19-0.14-0.17-0.4-0.22-0.61c-0.09-0.34-1.95-3.96-3.59-4.33c-1.56-0.35-5.48-0.36-6.79 0.36c-2.81 1.53-3.16 4.89-2.31 7.68c0.39 1.27 0.96 2.55 1.89 3.53c0.4 0.42 0.93 0.88 1.5 1.06c0.58 0.18 1.33 0.34 1.94 0.24c-0.06 0.34-0.15 0.66-0.12 1c0.04 0.38 0.09 0.76 0.08 1.14c-0.01 0.74-0.18 1.44-0.45 2.13c-0.14 0.35-0.38 0.7-0.42 1.07c-0.03 0.28 0 0.57-0.04 0.86c-0.08 0.55-0.23 1.09-0.48 1.58c-1.05 2-4.23 2.6-5.74 0.75c-1.11 2.19-3.03 3.85-5.42 4.48c-1.92 0.5-4.63 0.56-5.94-1.21c-0.52 0.47-1.1 0.86-1.71 1.18c-2.37 1.22-5.42 1.3-7.68-0.22c-1.17-0.78-2.06-1.97-2.47-3.31c-0.44-1.46-0.34-3.02-0.12-4.51c0.02-0.17 0.13-0.48 0.06-0.63c-0.07-0.14-0.25-0.17-0.4-0.24c-0.29-0.14-0.56-0.3-0.81-0.49c-0.52-0.39-0.94-0.9-1.24-1.47c-0.69-1.34-0.73-2.9-0.5-4.37c0.12-0.76 0.32-1.51 0.55-2.25c0.11-0.36 0.24-0.72 0.38-1.08c0.13-0.34 0.35-0.69 0.45-1.05c0.07-0.25 0.04-0.11-0.09-0.28c-0.06-0.07-0.14-0.13-0.2-0.19c-0.11-0.11-0.22-0.23-0.32-0.35c-0.2-0.23-0.37-0.49-0.52-0.75c-0.29-0.52-0.48-1.09-0.59-1.68c-0.24-1.26-0.12-2.58 0.12-3.83c0.15-0.76 0.38-1.51 0.71-2.22c0.1-0.22 0.26-0.43 0.34-0.65c0.08-0.2 0.04-0.2-0.08-0.39c-0.19-0.31-0.36-0.63-0.49-0.97c-0.85-2.08-0.86-4.51-0.15-6.63c0.68-2.02 2.06-3.81 3.99-4.77c0.5-0.25 1.02-0.43 1.56-0.56c0.29-0.07 0.59-0.12 0.89-0.16c0.09-0.01 0.31 0.01 0.37-0.04c0.04-0.04 0.05-0.33 0.06-0.4c0.22-1.19 0.73-2.32 1.53-3.24c0.79-0.91 1.82-1.58 2.95-1.98c0.22-0.08 0.31-0.08 0.43-0.26c0.1-0.14 0.14-0.33 0.22-0.49c0.15-0.32 0.31-0.63 0.49-0.93c0.37-0.63 0.81-1.23 1.31-1.77c0.98-1.05 2.17-2.07 3.55-2.52c0.74-0.24 1.5-0.28 2.25-0.09c0.14 0.04 1.64 0.61 1.6 0.71c0.06-0.16 0.27-0.28 0.38-0.41c0.19-0.21 0.34-0.45 0.5-0.68c0.38-0.53 0.86-0.92 1.4-1.27c1.13-0.74 2.44-1.27 3.78-1.48c1.29-0.21 2.62-0.1 3.85 0.36c0.23 0.08 0.7 0.41 0.93 0.41c0.22 0 0.71-0.36 0.92-0.45c0.62-0.26 1.26-0.46 1.93-0.54c1.12-0.14 2.23 0.13 3.19 0.72c0.25 0.15 0.22 0.08 0.4-0.14c0.1-0.13 0.21-0.25 0.33-0.38c0.19-0.2 0.38-0.4 0.58-0.59c0.38-0.36 0.79-0.69 1.21-1c2-1.46 4.3-1.58 6.69-1.6c2.12-0.02 4.22 0.5 5.92 1.8c0.14 0.11 0.48 0.53 0.65 0.55c0.15 0.03 0.65-0.35 0.8-0.43c0.51-0.25 1.03-0.48 1.56-0.67c1.04-0.36 2.13-0.54 3.22-0.44c2 0.17 3.94 1.14 5.36 2.54c0.76 0.75 1.4 1.64 1.77 2.64c0.11 0.29 0.2 0.6 0.27 0.9c0.02 0.1 0.02 0.3 0.08 0.39c0.08 0.11 0.12 0.07 0.28 0.06c0.45-0.02 0.9 0.03 1.34 0.13c1.8 0.44 3.14 1.94 3.64 3.69c0.63 2.21-0.14 4.54-1.37 6.39z" />
	<path id="Layer" fill-rule="evenodd" class="s5" d="m7 313h115c8.84 0 16 7.16 16 16v92c0 8.84-7.16 16-16 16h-115c-8.84 0-16-7.16-16-16v-92c0-8.84 7.16-16 16-16zm16 28c-2.21 0-4 1.79-4 4v60c0 2.21 1.79 4 4 4h83c2.21 0 4-1.79 4-4v-60c0-2.21-1.79-4-4-4h-83z" />
	<path id="Layer" fill-rule="evenodd" class="s3" d="m209.51 433.66c-12.81-28.36-22.08-53.05-25.8-66.08c-6.37-22.31-11.21-41.94-12.44-49.27c-2.92-17.48 22.46-18.5 25.82-9.81c5.08 13.15 13.94 56.35 24.59 121.61l-12.18 3.55zm-148.62-89c11.76-4.65 52.92-19.19 72.78-23.3c5.71-1.18 11.24-2.28 16.44-3.27c15.45-2.95 23.46 24.93 8.58 27.07c-37.07 5.34-89.62 10.84-94.11 11.46c-6.3 0.87-11.07-9.04-3.68-11.96z" />
	<path id="Layer" fill-rule="evenodd" class="s6" d="m159.59 310.42l-63.59-32.37v-7.05h7.56c61.52 15.68 92.95 25.72 94.31 30.14c0.01 0.05 0.03 0.1 0.04 0.14c0.03 0.04 0.06 0.08 0.09 0.12c12.19 16.77 19.49 98.62 21.89 104.75l-23.36 3.49c-8.94-33.14-37.53-56.22-36.77-95.91c-0.2-1.16-0.26-2.27-0.17-3.31z" />
	<path id="Layer" fill-rule="evenodd" class="s7" d="m101.28 329.64c-5.82-1.16-11.18-2.2-15.76-3.01c-29.61-5.19-38.25-21.05-33.14-55.63h54.56c8.91 2.56 55.23 21.99 79.26 32.32c15.91 6.84 10.89 31.49 1.88 37.9c-0.05 0.39-0.21 0.66-0.5 0.78c-48.45 20.08-86.79 9.55-99.59 12.91l-5.92-18.68l19.21-6.59z" />
	<path id="Layer" fill-rule="evenodd" class="s8" d="m65.05 341.69c1.1-0.03 2.02 0.85 2.05 1.95v0c0.07 2.88 0.43 4.98 1.08 6.32c0.8 1.64 2.45 3.48 4.96 5.51l4.41-0.28c0.01 0 0.02 0 0.03 0c0.55-0.02 1.01 0.41 1.03 0.96l0.99 28.69c0.64 2.01 1.47 4.52 2.51 7.53c1.04 3.01-0.94 4.91-5.94 5.72c-15.57-31.92-23.81-48.81-24.73-50.69c2.85-2.06 5.08-3.48 6.7-4.27c1.33-0.65 3.59-1.13 6.76-1.43c0.05 0 0.09-0.01 0.14-0.01z" />
	<path id="Layer" fill-rule="evenodd" class="s8" d="m203.73 428.27c0.46-1 1.65-1.44 2.65-0.98v0c2.62 1.2 4.67 1.8 6.15 1.8c1.83 0 4.2-0.68 7.13-2.05l1.69-4.09c0-0.01 0.01-0.02 0.01-0.03c0.22-0.5 0.82-0.73 1.32-0.51l26.21 11.69c2.09 0.31 4.71 0.66 7.87 1.05c3.16 0.39 4 3 2.54 7.85c-35.51 0-54.31 0-56.4 0c-0.6-3.46-0.9-6.09-0.9-7.89c0-1.48 0.56-3.72 1.68-6.7c0.02-0.04 0.03-0.09 0.06-0.13z" />
	<path id="Layer" fill-rule="evenodd" class="s3" d="m154.04 255.12l28.33 27.63c8.24 3.52 15 7.4 20.26 11.65c1.18 1.43 2.47 4.16-3.1 2.94c-5.57-1.22-11.48-2.26-12.53-0.45c-1.05 1.81 2.04 4.59 0.1 6.96c-1.29 1.58-5.63-3.45-13.01-15.08l-29.46-17.37l9.41-16.28zm-138.65 67.79c-1.43 2.91-12.04 11.74-19.39 16.78c-2.95 2.02-1.73 4.62-0.62 5.3c9.07 5.6 15.05-1.02 22.9-4.67c8.6-4 7.88 7.3 14.7 4.25c-2.09-4.69-6.99-13.43-4.68-19.16c1.03-2.55 7.99-24.65 20.9-66.3l-20.9-0.08c-6.65 38.63-10.96 59.93-12.91 63.89z" />
	<path id="Layer" fill-rule="evenodd" class="s9" d="m87.69 171.33l8.65-1.48c14.89 37.19 40.88 70.98 77.98 101.38l-28.03 34.06c-37.09-43.28-59.96-87.93-58.59-133.95z" />
	<path id="Layer" fill-rule="evenodd" class="s10" d="m77.01 166l23.23 3.46c0 30.32 8.92 67.16 26.76 110.54h-77c3.61-48.5 8.76-84.64 27.01-114z" />
	<path id="Layer" fill-rule="evenodd" class="s11" d="m76.52 166.02c0 0 0.01-0.01 0.01-0.02h1.52c1.81 0.06 4.58 0.18 8.29 0.34l5.61 16.04c0.59 19.55 4.06 58.97 10.4 118.23h-50.48c0.13 4.09 0.35 8.22 0.66 12.39h-37.53c5.61-63.34 26.12-112.34 61.5-147l0.02 0.02v0z" />
	<path id="Layer" fill-rule="evenodd" class="s12" d="m55.21 248.23c1.44 25.51 5.03 43.1 10.79 52.77h-14.11c-0.62-18.36 0.49-35.95 3.32-52.77v0z" />
	<path id="Layer" fill-rule="evenodd" class="s13" d="m63.11 270l24.89-11.57v11.57h-24.89z" />
</svg>