<svg xmlns="http://www.w3.org/2000/svg" xmlns:xlink="http://www.w3.org/1999/xlink" width="212.072" height="68.004" viewBox="0 0 212.072 68.004">
  <defs>
    <radialGradient id="radial-gradient" cx="0.5" cy="0.5" r="0.5" gradientUnits="objectBoundingBox">
      <stop offset="0" stop-color="#f4b31b"/>
      <stop offset="1" stop-color="#cc932b"/>
    </radialGradient>
    <linearGradient id="linear-gradient" x1="0.5" y1="0.999" x2="0.5" y2="-0.001" gradientUnits="objectBoundingBox">
      <stop offset="0" stop-color="#6e2616"/>
      <stop offset="1" stop-color="#9b4722"/>
    </linearGradient>
    <linearGradient id="linear-gradient-2" x1="0.501" y1="0" x2="0.501" y2="1" xlink:href="#linear-gradient"/>
  </defs>
  <g id="logo" transform="translate(112.73 -0.039)">
    <path id="Path_1" data-name="Path 1" d="M4.138,116.7,5.5,110.008,6.8,116.7Zm.252-12.03L.27,123.2H2.935l.8-3.977H7.306l.805,3.977h2.665L6.653,104.672H4.392Zm15.683,0H17.259L15.1,112.021l-2.16-7.349H10.171l3.619,10.722v7.8h2.665v-7.8Zm3.368,12.03,1.357-6.694,1.307,6.694Zm.2-12.03L19.521,123.2h2.663l.805-3.977h3.568l.805,3.977h2.663l-4.121-18.524H23.643Zm15.381,11.175L35,104.672H32.489V123.2H35.1l.051-11.124L39.225,123.2h2.513V104.672H39.075Zm11.713,2.567a2.742,2.742,0,0,1-.454,1.762,2.057,2.057,0,0,1-1.607.554H47.469V107.189h1.206a2.139,2.139,0,0,1,1.607.553,2.778,2.778,0,0,1,.454,1.712Zm-2.011-13.742H44.8V123.2h3.67a4.883,4.883,0,0,0,3.62-1.259,5.12,5.12,0,0,0,1.255-3.776v-8.657a4.916,4.916,0,0,0-1.2-3.525,4.192,4.192,0,0,0-3.419-1.308ZM56.466,123.2h7.892v-2.667H59.131v-5.387H63.7v-2.516H59.131v-5.437h5.228v-2.517H56.466Zm16.94-10.57H70.088v-7.954H67.474V123.2h2.614v-8.2h3.318v8.2H76.02V104.672H73.406ZM91,111.669a2.115,2.115,0,0,1-1.759.6H88.033v-5.084h1.106a2.306,2.306,0,0,1,1.81.6,2.9,2.9,0,0,1,.5,1.913A2.855,2.855,0,0,1,91,111.669Zm.1,8.155c-.251.5-.9.7-1.86.7H88.084v-5.94h1.155a2.033,2.033,0,0,1,1.81.653,3.86,3.86,0,0,1,.452,2.166,5.645,5.645,0,0,1-.4,2.415ZM89.29,104.672H85.419V123.2h3.62a4.908,4.908,0,0,0,3.718-1.31,5.263,5.263,0,0,0,1.208-3.725V117.1a4.977,4.977,0,0,0-.453-2.315,2.98,2.98,0,0,0-1.408-1.31,4.454,4.454,0,0,0,1.408-1.308,4,4,0,0,0,.453-2.115V109.4a5.081,5.081,0,0,0-1.157-3.373,4.366,4.366,0,0,0-3.518-1.359Zm10.4,12.03,1.358-6.694,1.307,6.694Zm.251-12.03L95.825,123.2h2.663l.8-3.977h3.569l.805,3.977h2.663l-4.121-18.524H99.948Zm14.729,11.175-4.021-11.175h-2.564V123.2h2.665l.05-11.124,4.021,11.124h2.513V104.672h-2.663Zm11.36-3.726,3.619-7.449H126.99l-3.921,8.457v-8.457H120.4V123.2h2.665v-5.537l1.457-2.667,2.965,8.2h2.815Zm1.709-22.2c4.071-3.977,2.061-9.514-.3-13.691l-.251-.051a39.741,39.741,0,0,0-2.714,4.027c.452.806,2.614,4.531,2.563,5.285-.05.706-4.474,1.108-7.087.957-2.363-.15-3.066-1.057-3.066-3.423,0-5.889.251-10.973-.4-16.863l-.352-.2a40.639,40.639,0,0,0-3.016,2.87c.4,3.825.653,6.744.805,10.57.2,4.581-.754,10.874,4.474,12.081,2.513.6,7.541.2,9.35-1.56M92.658,84.94h.15c1.86,2.316,3.77,5.79,6.887,6.493,6.535,1.41,12.314-.906,12.314-7.953,0-2.265-1.558-5.285-2.663-7.248l-.252-.051a39.955,39.955,0,0,0-2.713,4.027c.452.806,2.614,4.531,2.563,5.285,0,.152-.3.3-.8.454C104.571,87,100.348,87,97.483,84.437c-2.714-2.418-11.561-10.27-12.667-11.83a90.4,90.4,0,0,1,12.968-4.63q1.2-2.048,2.261-4.178l-.2-.2a137.729,137.729,0,0,0-15.08,5.437c-2.764,1.208-3.216,4.43-2.162,7,2.112,1.864,6.485,5.89,7.34,8.508-4.223,2.415-16.186,3.523-19.554-.3-1.508-1.712-1.157-3.827-.855-5.839l-1.457-.4c-1.66,4.932-2.162,10.821,3.87,12.936,3.469,1.259,11.16,1.057,14.678.051,2.967-.806,5.328-2.467,6.033-6.041M58.829,62.54c-.7-.1-1.408-.251-2.011-.353-2.563-.5-3.719,0-4.172,2.87L54,67.122h.4c1.056-1.913.6-2.166,2.665-1.813,2.413.353,4.875.805,6.835-.957l.906-2.718-.3-.2c-1.66,1.509-3.57,1.46-5.681,1.107M57.773,91.684c1.66-1.811,2.513-2.969,2.815-5.435.6-5.99.15-13.943-.4-19.933l-.452-.2c-1.106,1.006-2.111,2.064-3.066,3.121.754,6.443,1.508,15.554.553,22.048l.553.4Zm-10.3,4.582c.8.755,1.558,1.56,2.312,2.316a9.93,9.93,0,0,0,2.563-2.669,22.673,22.673,0,0,0-3.015-3.222l-2.313,2.416a26.6,26.6,0,0,0-2.362-2.416l-2.665,2.769c1.056,1.006,2.112,2.013,3.117,3.071a10.164,10.164,0,0,0,2.363-2.266m5.378-20.085a39.955,39.955,0,0,0-2.714,4.027c.452.806,2.614,4.531,2.564,5.285-.051.605-9,2.467-10.506-.855a5.876,5.876,0,0,1,.2-3.927l-.2-.15A18.741,18.741,0,0,0,40.08,81.92c-.4.906-.6,1.762-1.106,2.667-1.257,2.215-6.284,2.718-8.043.906a5.979,5.979,0,0,1-1.408-3.271c-.6-3.424-1.307-7.047-2.261-10.42l-.453-.15A27.837,27.837,0,0,0,24.4,75.225a46.161,46.161,0,0,1,2.111,7.4c.251,1.41.251,2.013-.7,2.618-2.665,1.56-7.792,2.466-7.993-1.913l-1.708.152c-.2,3.472-.2,8.254,4.624,8.254,3.267,0,6.132-1.157,7.138-4.378h.1c1.708,5.737,8.846,5.587,11.962,1.509h.1c2.162,3.574,8.647,3.474,12.115,1.963,2.614-1.158,3.668-4.782,3.668-7.349,0-2.265-1.558-5.285-2.663-7.248l-.3-.051ZM3.737,81.467A14.768,14.768,0,0,1,6.25,78.849a20.536,20.536,0,0,1,3.972,2.769,4.593,4.593,0,0,1,1.507,2.618,3.789,3.789,0,0,1-1.206,1.157,8.791,8.791,0,0,1-1.708.755A8.177,8.177,0,0,1,7,86.4,5.443,5.443,0,0,1,4.894,86a3.464,3.464,0,0,1-1.408-1.108,2.339,2.339,0,0,1-.5-1.46,3.875,3.875,0,0,1,.754-1.963ZM6.552,91.685A7.109,7.109,0,0,0,13.74,86.2c2.061-7.35-2.967-9.514-8.244-13.693l-.553.353-.4,3.019C2.179,78.65.47,81.418.47,85.143c0,3.825,2.261,6.544,6.082,6.544ZM125.43,95.662a25.336,25.336,0,0,0-3.619-2.92L119.5,95.964a39.033,39.033,0,0,1,3.67,2.768,9.2,9.2,0,0,0,2.261-3.071" transform="translate(-113 -58.157)" fill="#6e2616" fill-rule="evenodd"/>
    <path id="Path_2" data-name="Path 2" d="M95.744,79.556a8.706,8.706,0,0,0,2.261-3.071,25.43,25.43,0,0,0-3.618-2.92l-2.313,3.222a38.823,38.823,0,0,1,3.67,2.769m-65.7-3.071a25.429,25.429,0,0,0-3.618-2.92l-2.313,3.222a38.823,38.823,0,0,1,3.67,2.769,9.2,9.2,0,0,0,2.261-3.071" transform="translate(-105.682 -54.434)" fill="#6e2616" fill-rule="evenodd"/>
    <path id="Path_3" data-name="Path 3" d="M9.719.039H58.728A9.508,9.508,0,0,1,68.177,9.5v49.08a9.508,9.508,0,0,1-9.449,9.462H9.719A9.508,9.508,0,0,1,.27,58.581V9.5A9.446,9.446,0,0,1,9.719.039" transform="translate(31.165 0)" fill-rule="evenodd" fill="url(#radial-gradient)"/>
    <path id="Path_4" data-name="Path 4" d="M64.529,24.188V50.614a7.083,7.083,0,0,1-7.089,7.1H9.587a7.083,7.083,0,0,1-7.087-7.1V39.591c2.614-28.24,29.556.353,42.072.353,9.953-.052,15.884-7.7,19.957-15.756" transform="translate(31.849 7.412)" fill-rule="evenodd" fill="url(#linear-gradient)"/>
    <path id="Path_5" data-name="Path 5" d="M9.6,2.272H57.452a7.086,7.086,0,0,1,7.089,7.1V20.042c-2.213,29.5-29.506.05-42.123.05-9.9,0-15.835,7.9-19.957,15.957V9.37A7.226,7.226,0,0,1,9.6,2.273" transform="translate(31.837 0.685)" fill-rule="evenodd" fill="url(#linear-gradient-2)"/>
  </g>
</svg>
